<mxfile host="app.diagrams.net" agent="Mozilla/5.0 (Windows NT 10.0; Win64; x64) AppleWebKit/537.36 (KHTML, like Gecko) Chrome/129.0.0.0 Safari/537.36" version="24.7.13">
  <diagram name="Page-1" id="g2uPSFJfIC21hpC88mtC">
    <mxGraphModel dx="691" dy="369" grid="1" gridSize="1" guides="1" tooltips="1" connect="1" arrows="1" fold="1" page="1" pageScale="1" pageWidth="850" pageHeight="1100" math="0" shadow="0">
      <root>
        <mxCell id="0" />
        <mxCell id="1" parent="0" />
        <mxCell id="-w6vP79r37R96wUZA5xz-2" value="" style="rounded=0;whiteSpace=wrap;html=1;" vertex="1" parent="1">
          <mxGeometry x="290" y="440" width="70" height="130" as="geometry" />
        </mxCell>
        <mxCell id="-w6vP79r37R96wUZA5xz-3" value="" style="rounded=0;whiteSpace=wrap;html=1;" vertex="1" parent="1">
          <mxGeometry x="440" y="440" width="70" height="130" as="geometry" />
        </mxCell>
        <mxCell id="-w6vP79r37R96wUZA5xz-6" value="" style="endArrow=classic;html=1;rounded=0;exitX=0;exitY=0.214;exitDx=0;exitDy=0;exitPerimeter=0;entryX=1.002;entryY=0.215;entryDx=0;entryDy=0;entryPerimeter=0;" edge="1" parent="1">
          <mxGeometry width="50" height="50" relative="1" as="geometry">
            <mxPoint x="439.86" y="469.99999999999994" as="sourcePoint" />
            <mxPoint x="360.0000000000001" y="470.13999999999993" as="targetPoint" />
          </mxGeometry>
        </mxCell>
        <mxCell id="-w6vP79r37R96wUZA5xz-7" value="" style="endArrow=classic;html=1;rounded=0;exitX=0;exitY=0.214;exitDx=0;exitDy=0;exitPerimeter=0;entryX=1.002;entryY=0.215;entryDx=0;entryDy=0;entryPerimeter=0;" edge="1" parent="1">
          <mxGeometry width="50" height="50" relative="1" as="geometry">
            <mxPoint x="440" y="504.92" as="sourcePoint" />
            <mxPoint x="360" y="504.92" as="targetPoint" />
          </mxGeometry>
        </mxCell>
        <mxCell id="-w6vP79r37R96wUZA5xz-11" value="" style="endArrow=classic;startArrow=classic;html=1;rounded=0;exitX=1.003;exitY=0.766;exitDx=0;exitDy=0;exitPerimeter=0;entryX=0;entryY=0.769;entryDx=0;entryDy=0;entryPerimeter=0;" edge="1" parent="1" source="-w6vP79r37R96wUZA5xz-2" target="-w6vP79r37R96wUZA5xz-3">
          <mxGeometry width="50" height="50" relative="1" as="geometry">
            <mxPoint x="390" y="530" as="sourcePoint" />
            <mxPoint x="440" y="480" as="targetPoint" />
          </mxGeometry>
        </mxCell>
        <mxCell id="-w6vP79r37R96wUZA5xz-12" value="CLK" style="text;html=1;align=center;verticalAlign=middle;whiteSpace=wrap;rounded=0;" vertex="1" parent="1">
          <mxGeometry x="370" y="450" width="60" height="30" as="geometry" />
        </mxCell>
        <mxCell id="-w6vP79r37R96wUZA5xz-13" value="R / W" style="text;html=1;align=center;verticalAlign=middle;whiteSpace=wrap;rounded=0;" vertex="1" parent="1">
          <mxGeometry x="370" y="490" width="60" height="20" as="geometry" />
        </mxCell>
        <mxCell id="-w6vP79r37R96wUZA5xz-14" value="" style="endArrow=none;html=1;rounded=0;strokeWidth=1;startSize=6;jumpSize=6;movable=1;resizable=1;rotatable=1;deletable=1;editable=1;locked=0;connectable=1;" edge="1" parent="1">
          <mxGeometry width="50" height="50" relative="1" as="geometry">
            <mxPoint x="404" y="494" as="sourcePoint" />
            <mxPoint x="415" y="494" as="targetPoint" />
            <Array as="points">
              <mxPoint x="410" y="494" />
            </Array>
          </mxGeometry>
        </mxCell>
        <mxCell id="-w6vP79r37R96wUZA5xz-18" value="" style="endArrow=none;html=2;rounded=0;startSize=3;endSize=3;jumpSize=16;strokeWidth=2;" edge="1" parent="1">
          <mxGeometry width="50" height="50" relative="1" as="geometry">
            <mxPoint x="396" y="545" as="sourcePoint" />
            <mxPoint x="412" y="536" as="targetPoint" />
          </mxGeometry>
        </mxCell>
        <mxCell id="-w6vP79r37R96wUZA5xz-21" value="16" style="text;html=1;align=center;verticalAlign=middle;whiteSpace=wrap;rounded=0;" vertex="1" parent="1">
          <mxGeometry x="373" y="517" width="60" height="30" as="geometry" />
        </mxCell>
        <mxCell id="-w6vP79r37R96wUZA5xz-22" value="FPGA" style="text;html=1;align=center;verticalAlign=middle;whiteSpace=wrap;rounded=0;" vertex="1" parent="1">
          <mxGeometry x="296" y="493" width="60" height="30" as="geometry" />
        </mxCell>
        <mxCell id="-w6vP79r37R96wUZA5xz-23" value="MCU" style="text;html=1;align=center;verticalAlign=middle;whiteSpace=wrap;rounded=0;" vertex="1" parent="1">
          <mxGeometry x="447" y="493" width="60" height="30" as="geometry" />
        </mxCell>
      </root>
    </mxGraphModel>
  </diagram>
</mxfile>
